<svg id="bell_icon" xmlns="http://www.w3.org/2000/svg" width="15.223" height="17.991" viewBox="0 0 15.223 17.991">
  <path id="Icon_ionic-md-notifications-outline" data-name="Icon ionic-md-notifications-outline" d="M13.28,6.509a6.252,6.252,0,0,1,1.034.194,4.407,4.407,0,0,1,3.359,4.318V16.54l.4.4.337.338H8.06l.337-.338.4-.4V11.021A4.407,4.407,0,0,1,12.159,6.7a7.656,7.656,0,0,1,1.034-.194m.043-3.134a1.322,1.322,0,0,0-1.343,1.349v.63a5.831,5.831,0,0,0-4.477,5.667v4.948l-1.791,1.8v.9H20.848v-.9l-1.791-1.8V11.021A5.831,5.831,0,0,0,14.58,5.354v-.63a1.322,1.322,0,0,0-1.343-1.349Zm1.791,16.192H11.446a1.791,1.791,0,1,0,3.582,0Z" transform="translate(-5.625 -3.375)" fill="#fff"/>
</svg>
