<svg xmlns="http://www.w3.org/2000/svg" width="29" height="19" viewBox="0 0 29 19">
  <g id="Frame" transform="translate(0 -3.448)">
    <path id="Path_26505" data-name="Path 26505" d="M26.828,3.448H2.172A2.172,2.172,0,0,0,0,5.62V9.782H29V5.62A2.172,2.172,0,0,0,26.828,3.448Z" transform="translate(0 0)" fill="#f02b2b"/>
    <path id="Path_26506" data-name="Path 26506" d="M0,16.345a2.172,2.172,0,0,0,2.172,2.172H26.828A2.172,2.172,0,0,0,29,16.345V12.184H0Z" transform="translate(0 3.931)"/>
    <path id="Path_26507" data-name="Path 26507" d="M0,7.816H29v6.333H0Z" transform="translate(0 1.965)" fill="#f5f5f5"/>
    <path id="Path_26508" data-name="Path 26508" d="M12.765,9.713c0-.236-.294-.4-.579-.327l-.535.14-.13-.616a.737.737,0,0,0-.328-.455,1.134,1.134,0,0,0-.626-.179h-.5l-.524.506h.693l-.194.752-.565-.148c-.285-.075-.579.092-.579.327v2.554l.779-.611-.367.864H8.9v.506h3.866V12.52h-.412l-.367-.864.779.611V9.713ZM10.51,12.52H9.991l.357-.748.162.163Zm.644,0v-.586l.162-.163.357.748Zm-.322-.916a1.82,1.82,0,0,1-.957-1.517,1.631,1.631,0,0,0,.957-.506,1.631,1.631,0,0,0,.957.506A1.821,1.821,0,0,1,10.832,11.6Z" transform="translate(4.005 2.172)" fill="#f0c727"/>
  </g>
</svg>
