<svg xmlns="http://www.w3.org/2000/svg" xmlns:xlink="http://www.w3.org/1999/xlink" width="43.707" height="38.566" viewBox="0 0 43.707 38.566">
  <defs>
    <linearGradient id="linear-gradient" x1="-0.331" y1="-0.324" x2="3.353" y2="3.616" gradientUnits="objectBoundingBox">
      <stop offset="0" stop-color="#f0c49f"/>
      <stop offset="0.205" stop-color="#866e59"/>
      <stop offset="0.448" stop-color="#d8b18f"/>
      <stop offset="0.619" stop-color="#8a715c"/>
      <stop offset="0.812" stop-color="#c5a183"/>
      <stop offset="1" stop-color="#e0b794"/>
    </linearGradient>
    <filter id="golden_mail_icon" x="0" y="0" width="43.707" height="38.566" filterUnits="userSpaceOnUse">
      <feOffset dy="3" input="SourceAlpha"/>
      <feGaussianBlur stdDeviation="3" result="blur"/>
      <feFlood flood-opacity="0.502"/>
      <feComposite operator="in" in2="blur"/>
      <feComposite in="SourceGraphic"/>
    </filter>
  </defs>
  <g transform="matrix(1, 0, 0, 1, 0, 0)" filter="url(#golden_mail_icon)">
    <path id="golden_mail_icon-2" data-name="golden_mail_icon" d="M28.278,7.712H7.712a2.559,2.559,0,0,0-2.558,2.571L5.141,25.707a2.57,2.57,0,0,0,2.571,2.571H28.278a2.57,2.57,0,0,0,2.571-2.571V10.283a2.57,2.57,0,0,0-2.571-2.571Zm0,5.141L17.995,19.28,7.712,12.854V10.283L17.995,16.71l10.283-6.427v2.571Z" transform="translate(3.86 -1.71)" fill="url(#linear-gradient)"/>
  </g>
</svg>
