<svg xmlns="http://www.w3.org/2000/svg" width="24.89" height="27.656" viewBox="0 0 24.89 27.656">
  <g id="share" transform="translate(-4.5 -3)">
    <path id="Path_26500" data-name="Path 26500" d="M30.8,7.148A4.148,4.148,0,1,1,26.648,3,4.148,4.148,0,0,1,30.8,7.148Z" transform="translate(-1.406 0)" fill="#fff"/>
    <path id="Path_26501" data-name="Path 26501" d="M12.8,17.648A4.148,4.148,0,1,1,8.648,13.5,4.148,4.148,0,0,1,12.8,17.648Z" transform="translate(0 -0.82)" fill="#fff"/>
    <path id="Path_26502" data-name="Path 26502" d="M30.8,28.148A4.148,4.148,0,1,1,26.648,24,4.148,4.148,0,0,1,30.8,28.148Z" transform="translate(-1.406 -1.641)" fill="#fff"/>
    <path id="Path_26503" data-name="Path 26503" d="M12.885,20.265l9.444,5.5" transform="translate(-0.655 -1.349)" fill="none" stroke="#fff" stroke-linecap="round" stroke-linejoin="round" stroke-width="2"/>
    <path id="Path_26504" data-name="Path 26504" d="M22.316,9.765l-9.431,5.5" transform="translate(-0.655 -0.529)" fill="none" stroke="#fff" stroke-linecap="round" stroke-linejoin="round" stroke-width="2"/>
  </g>
</svg>
