<svg xmlns="http://www.w3.org/2000/svg" xmlns:xlink="http://www.w3.org/1999/xlink" width="62.971" height="62.971" viewBox="0 0 62.971 62.971">
  <defs>
    <linearGradient id="linear-gradient" x1="-0.331" y1="-0.324" x2="3.353" y2="3.616" gradientUnits="objectBoundingBox">
      <stop offset="0" stop-color="#f0c49f"/>
      <stop offset="0.205" stop-color="#866e59"/>
      <stop offset="0.448" stop-color="#d8b18f"/>
      <stop offset="0.619" stop-color="#8a715c"/>
      <stop offset="0.812" stop-color="#c5a183"/>
      <stop offset="1" stop-color="#e0b794"/>
    </linearGradient>
    <filter id="golden_twitter" x="0" y="0" width="62.971" height="62.971" filterUnits="userSpaceOnUse">
      <feOffset dy="3" input="SourceAlpha"/>
      <feGaussianBlur stdDeviation="3" result="blur"/>
      <feFlood flood-opacity="0.502"/>
      <feComposite operator="in" in2="blur"/>
      <feComposite in="SourceGraphic"/>
    </filter>
  </defs>
  <g transform="matrix(1, 0, 0, 1, 0, 0)" filter="url(#golden_twitter)">
    <path id="golden_twitter-2" data-name="golden_twitter" d="M22.486,44.971A22.485,22.485,0,0,1,6.586,6.586a22.485,22.485,0,0,1,31.8,31.8A22.338,22.338,0,0,1,22.486,44.971ZM11.964,19.884c-.025,0-.039,0-.045.013a5.656,5.656,0,0,0,.567,2.127,5.072,5.072,0,0,0,2.154,2.033l.771.365-.912.015c-.565,0-.768.007-.831.091-.04.053-.02.137.014.259a4.747,4.747,0,0,0,2.941,2.6l.975.334-.849.508a8.918,8.918,0,0,1-4.215,1.175,4.766,4.766,0,0,0-1.29.126,11.869,11.869,0,0,0,3.036,1.4,12.717,12.717,0,0,0,3.748.548A13.1,13.1,0,0,0,24.6,29.757,13.739,13.739,0,0,0,29.834,23.6,16.453,16.453,0,0,0,30.9,18.832c0-.735.052-.83.928-1.7a10.369,10.369,0,0,0,1.1-1.223c.058-.111.091-.181.073-.212-.008-.013-.024-.019-.051-.019a3.577,3.577,0,0,0-.683.2,4.418,4.418,0,0,1-1.1.306c-.07,0-.111-.016-.126-.049-.034-.078.078-.25.363-.558a4.637,4.637,0,0,0,1.07-1.7c0-.009-.009-.014-.026-.014a1.561,1.561,0,0,0-.477.189,8.788,8.788,0,0,1-1.385.54l-.849.27-.771-.524a6.354,6.354,0,0,0-1.336-.7,4.909,4.909,0,0,0-1.257-.148,4.77,4.77,0,0,0-1.5.212,4.536,4.536,0,0,0-3.067,4.573l.047.778-.787-.1a12.827,12.827,0,0,1-7.486-3.684l-1.038-1.032-.268.762a4.6,4.6,0,0,0,.976,4.7c.284.3.4.477.369.554-.014.031-.051.047-.116.047a3.183,3.183,0,0,1-.85-.235A3.2,3.2,0,0,0,11.964,19.884Z" transform="translate(9 6)" fill="url(#linear-gradient)"/>
  </g>
</svg>
