<svg id="Component_10_14" data-name="Component 10 – 14" xmlns="http://www.w3.org/2000/svg" xmlns:xlink="http://www.w3.org/1999/xlink" width="207.914" height="44.941" viewBox="0 0 207.914 44.941">
  <defs>
    <linearGradient id="linear-gradient" x1="0.96" y1="0.5" x2="0" y2="1" gradientUnits="objectBoundingBox">
      <stop offset="0" stop-color="#fefefe"/>
      <stop offset="0.318" stop-color="#747579"/>
      <stop offset="0.664" stop-color="#e9e9ea"/>
      <stop offset="1" stop-color="#c5c6c8"/>
    </linearGradient>
    <linearGradient id="linear-gradient-2" x1="1.014" y1="0.582" x2="0" y2="1" gradientUnits="objectBoundingBox">
      <stop offset="0" stop-color="#fefefe"/>
      <stop offset="0.226" stop-color="#747579"/>
      <stop offset="0.485" stop-color="#e9e9ea"/>
      <stop offset="0.707" stop-color="#808184"/>
      <stop offset="1" stop-color="#c5c6c8"/>
    </linearGradient>
  </defs>
  <path id="Union_1" data-name="Union 1" d="M122.088,15.755c-2.25-.055-4.5-.216-6.751-.341a7.293,7.293,0,0,1,.769-.149,7.293,7.293,0,0,0-.769.149c-6.5-.219-13-.608-19.5-.763-2.16-.109-4.33-.074-6.481-.3.344-.132.692-.277,1.037-.422h0c-.344.145-.692.29-1.037.422-4.961-.068-9.925-.045-14.88-.2-3.107.052-6.236,0-9.33-.135-2.544.053-5.09.042-7.636.032-2.122-.009-4.244-.018-6.365.01-4.311-.032-8.615.219-12.926.238-3.966-.01-7.92.319-11.886.383-1.159-.017-2.314.073-3.469.163-1.09.085-2.181.17-3.275.165-6.558.573-13.277.531-19.587,2.64.914-1.323,2.614-1.658,4.1-1.906,4.987-1.1,10.109-1.249,15.179-1.668,7.17-.364,14.336-.789,21.518-.853,3.538-.158,7.1-.322,10.627-.248,2.741-.2,5.492-.2,8.241-.192,1.222,0,2.444,0,3.664-.011,9.784-.1,19.567.106,29.348.367.061.035.184.106.248.142a2.449,2.449,0,0,0,1.655.451c.364-.008.73-.007,1.1,0-.366,0-.731-.006-1.1,0a2.449,2.449,0,0,1-1.655-.451,62.123,62.123,0,0,1,7.3.2c4.559.055,9.108.419,13.666.573,2.5.283,5.035.155,7.53.522h0a48.561,48.561,0,0,1,5.164.332c12.288.666,24.535,1.867,36.762,3.277-.016.145-.048.431-.064.573C149.569,17.533,135.845,16.38,122.088,15.755ZM65.133,14.008,65.122,14ZM65.108,14h0Zm12.736-.16Zm22.367-.357a13.526,13.526,0,0,1-2.969.264A13.524,13.524,0,0,0,100.211,13.479ZM61.232,13.6h0Zm.006,0c.148,0,.3,0,.446-.005C61.534,13.593,61.385,13.6,61.237,13.6Zm-.134,0h0Zm1.164-.018c.122,0,.243,0,.365,0C62.511,13.573,62.389,13.574,62.268,13.577Zm.521,0h0Zm-7.972-.037-.4.008.4-.008c.239-.006.478-.011.714-.011h0C55.3,13.524,55.057,13.53,54.817,13.535Zm.81-.011h0Zm109.8,1.442c-8.026-2.167-16.052-4.346-24.145-6.249-5.8-1.346-11.587-2.794-17.439-3.9a180.48,180.48,0,0,0-20.578-3.178,52.727,52.727,0,0,0-16.908.2h0c-5.029,1.333-9.584,3.921-14.3,6.062-1.906.863-3.741,2.109-5.872,2.283h0a21.856,21.856,0,0,1-5.083.339,31.759,31.759,0,0,0-3.542.093c-13,.274-26.013.683-38.98,1.652-5.183.27-10.35.811-15.482,1.581a2.539,2.539,0,0,1-1.185-.171,4.163,4.163,0,0,1,1.916-.654c7.189-1.413,14.532-1.652,21.824-2.157C38.146,10,50.663,9.742,63.174,9.359h0A12.185,12.185,0,0,0,67.9,7.8c4.05-1.755,8.074-3.567,12.15-5.264A30.128,30.128,0,0,1,89.672.219c.28.309.563.625.847.937h0c-.283-.312-.567-.628-.847-.937,6.642-.647,13.283.28,19.876.985,16,2.176,31.663,6.249,47.19,10.6,3.235,1,6.516,1.854,9.784,2.759.914.29,2.025.006,2.823.618a6.548,6.548,0,0,1-1.483.166A8.448,8.448,0,0,1,165.427,14.967ZM63.67,9.864Zm64.362,3.7a10.282,10.282,0,0,1-1.239-1.68h0c-.8-.843-1.359-1.89-2.186-2.711a11.69,11.69,0,0,0-5.9-2.885A109.321,109.321,0,0,0,92.966,3.329,18.9,18.9,0,0,0,84.5,5.341c-2.389,1.146-4.362,2.946-6.474,4.51A6.151,6.151,0,0,1,75.9,11.194c.148-.956,1.066-1.449,1.69-2.083,3.718-3.4,8.293-6.332,13.457-6.632a84.359,84.359,0,0,1,12.2.283,164.165,164.165,0,0,1,17.562,2.93,12.94,12.94,0,0,1,7.234,4.1,3.473,3.473,0,0,1-1.93-.934,3.473,3.473,0,0,0,1.93.934c1.256,1.246,2.324,2.666,3.49,3.992C130.368,13.7,129.2,13.6,128.031,13.566Zm-2.276-3.979h0l.037-.1Zm.318-.761,0,0Zm-.007,0-.005,0Z" transform="translate(18.718)" fill="url(#linear-gradient)"/>
  <path id="Union_2" data-name="Union 2" d="M167.885,16.483l.406.058c.1,1.739.052,3.482.034,5.224.018-1.743.069-3.485-.034-5.224l-.406-.058c-.39-.084-.654.306-.975.444-1.945,1.259-4.353,1.394-6.6,1.33A9.627,9.627,0,0,1,154.4,16.3a6.468,6.468,0,0,1-2.221-6.139c.225.67.428,1.349.625,2.031.554.142,1.114.283,1.674.425a5.293,5.293,0,0,0,2.366,2.836l-.366.126.366-.126a10.548,10.548,0,0,0,5.73.814,6.019,6.019,0,0,0,4.8-2.73,4.442,4.442,0,0,0-.76-4.945c-1.719-1.71-4.3-2.083-6.619-1.932a6.245,6.245,0,0,0-5.009,2.588,4.884,4.884,0,0,0-.505,3.367c-.56-.142-1.12-.283-1.674-.425-.2-.683-.4-1.362-.625-2.031.6-2.7,3.081-4.5,5.656-5.122A12.657,12.657,0,0,1,167.6,6.5l-.061.177a3.805,3.805,0,0,0,.283-1.7q1.13.014,2.266.039c-.074,5.611.01,11.223-.042,16.831h0l.18.077c-.641.013-1.272.019-1.906.032l-.493.029C167.827,20.15,167.74,18.312,167.885,16.483Zm1.613,5.128.216.092-.216-.092Zm.16-6.9c0-2.761-.049-5.525-.049-8.286C169.609,9.19,169.658,11.953,169.658,14.714ZM154.589,7.26ZM167.463,6.9c.28-.135.557-.277.834-.419.032-.238.09-.711.122-.95-.032.238-.09.711-.122.95-.277.142-.554.283-.834.419ZM169.61,5.55Zm9.706,12.35a7.739,7.739,0,0,1-5.5-2.035,4.033,4.033,0,0,1-.985-2.914c-.006-2.643.158-5.293-.029-7.932a19.218,19.218,0,0,1,2.4,0c-.171,2.4.109,4.806-.174,7.192a3.4,3.4,0,0,0,.937,2.8c1.761,1.217,4,.995,6.027.956.021.116.067.34.094.472-.027-.132-.073-.356-.094-.472l-.019-.087c2.006-.122,4.192-1.394,4.378-3.573.109-2.44.032-4.884.029-7.324q1.159,0,2.321.013-.068,6.35,0,12.7c-.776-.01-1.545-.01-2.318,0-.01-.47-.019-.937-.019-1.4a9.369,9.369,0,0,1-5.875,1.635C180.095,17.932,179.7,17.92,179.317,17.9Zm-2.881-2.089c1.751.86,3.757.734,5.653.663h0c-1.9.071-3.9.2-5.653-.663a3.172,3.172,0,0,1-1.574-1.53A3.172,3.172,0,0,0,176.435,15.81Zm-1.666-4.868c-.178-1.529.037-3.095-.093-4.633C174.806,7.848,174.592,9.413,174.769,10.943Zm-68.117,6.822.084-.024-.084.024a9.368,9.368,0,0,1-5.1-2.1,5.954,5.954,0,0,1-.9-7.675A8.482,8.482,0,0,1,105.6,5.042a14.864,14.864,0,0,1,8.8.67,6.349,6.349,0,0,1,3.722,4.031,6.042,6.042,0,0,1-.975,5.119,8.882,8.882,0,0,1-5.914,2.907,16.72,16.72,0,0,1-2.246.149A18.192,18.192,0,0,1,106.652,17.764Zm.088-.025a8.116,8.116,0,0,1,2.2-.307A8.114,8.114,0,0,0,106.74,17.739Zm2.208-.307h0Zm-1.71-10.719a7.686,7.686,0,0,0-3.982,1.645,4.058,4.058,0,0,0-.872,4.861,6.371,6.371,0,0,0,4.407,2.627c2.656.328,5.676.258,7.849-1.51a4.09,4.09,0,0,0-.686-6.58l0-.009,0,.009a10.856,10.856,0,0,0-6.716-1.043l-.009-.005ZM101.8,8.518Zm12.414-1.275Zm0,0q-.387-.177-.783-.323Q113.827,7.066,114.215,7.244Zm-7.749-.969Zm.034,0a18.6,18.6,0,0,1,3.288-.1q-.534-.035-1.071-.034A19.826,19.826,0,0,0,106.5,6.271Zm-76.79,11.5a6.971,6.971,0,0,1,2.494-.338,6.97,6.97,0,0,0-2.494.338c-1.822-.229-3.9-.908-4.826-2.646-.592-.946-.377-2.093-.415-3.145-.032-2.321.081-4.649-.084-6.97.776-.019,1.552-.026,2.331-.032.068,2.962-.071,5.93.064,8.889.608,1.471,2.337,2.006,3.8,2.08,2.015.1,4.3.164,5.972-1.165a3.7,3.7,0,0,0,1.378-3.1c-.01-2.231.016-4.462-.026-6.693.8-.013,1.6-.016,2.4,0-.155,4.282.129,8.573-.138,12.849a9.186,9.186,0,0,0-2.225-.145l-.01-1.336a7.611,7.611,0,0,1-3.95,1.42l-.048-.016.048.016a16.294,16.294,0,0,1-2.128.14A16.1,16.1,0,0,1,29.709,17.774Zm28.337,0A9.811,9.811,0,0,1,53.81,16.4a5.811,5.811,0,0,1-2.84-5.759A6.075,6.075,0,0,1,54.643,5.83a14.7,14.7,0,0,1,9.063-.792,7.942,7.942,0,0,1,4.906,3.02,5.931,5.931,0,0,1-.56,7.247,9.387,9.387,0,0,1-5.734,2.479h0a17.559,17.559,0,0,1-2.137.133A15.768,15.768,0,0,1,58.046,17.774Zm.016-.005a6.592,6.592,0,0,1,1.351-.3A6.589,6.589,0,0,0,58.062,17.769Zm-4.723-7.586a4.082,4.082,0,0,0,1.429,4.295c2.18,1.635,5.093,1.7,7.688,1.362A6.561,6.561,0,0,0,66.578,13.6a4.026,4.026,0,0,0-.541-5.222A7.517,7.517,0,0,0,62.009,6.7l.105-.03-.105.03c-2.4-.225-5.025-.116-7.073,1.313a3.957,3.957,0,0,0-1.6,2.17c-.529-.713.143-1.449.629-2.043C53.483,8.734,52.81,9.47,53.339,10.183Zm.843-2.3a10.533,10.533,0,0,1,5.957-1.749h0A10.532,10.532,0,0,0,54.183,7.884ZM125.276,17.8c-2.3-.151-5.1-1.326-5.47-3.905-.08-2.968.013-5.94-.032-8.908.75,0,1.5,0,2.25,0,.058,2.775-.01,5.55.032,8.322.039,1.587,1.777,2.431,3.165,2.569,2.3.216,4.948.351,6.841-1.22.679-.457.844-1.3,1.252-1.954.126-.135.373-.409.5-.547.041-.79.051-1.58.051-2.371,0,.791-.009,1.581-.051,2.371-.122.138-.37.412-.5.547.01-2.563.064-5.125-.023-7.688.776,0,1.555-.006,2.334,0-.064,4.217-.045,8.438-.016,12.655-.769,0-1.539.023-2.305.048.023-.319.064-.959.087-1.278l-.09-.071a7.943,7.943,0,0,1-4.015,1.423h0a16.151,16.151,0,0,1-2.055.131A16.287,16.287,0,0,1,125.276,17.8Zm9.945-.663h0q-.015-2.527-.016-5.053Q135.206,14.607,135.221,17.133Zm-1.366-9.362c0-.765.009-1.53.046-2.295.441.035.889.071,1.333.109h0c-.444-.039-.892-.074-1.333-.109C133.863,6.241,133.855,7.006,133.855,7.771Zm62.631,9.984c-2.157-.312-4.507-1.2-5.624-3.2a6.648,6.648,0,0,1-.6-4.893,6.809,6.809,0,0,1,4.919-4.391,3.954,3.954,0,0,0,2.586.083,7.075,7.075,0,0,1,1.493-.176,15.211,15.211,0,0,1,4.233.647,15.7,15.7,0,0,0,2.836.924,5.88,5.88,0,0,1,1.533,4.853h0l-.023.448c-4.9,0-10.655.021-15.552.066l.138.6c-.077-.155-.229-.467-.306-.625l.016-.013-.016.013c.077.158.229.47.306.625.789,2.292,3.332,3.213,5.566,3.248,2.759.219,6.059-.216,7.678-2.756.435-.035.29,0,2.033,0-.473,2.318-4.377,4.456-6.588,4.607h0c-.692.062-1.386.1-2.08.1A20.382,20.382,0,0,1,196.486,17.755Zm.122-.026c.407-.087.821-.166,1.237-.222C197.429,17.562,197.015,17.641,196.608,17.728Zm.442-6.977h0Zm0,0c.683,0,1.365-.007,2.049-.013C198.417,10.745,197.734,10.751,197.052,10.751Zm2.141-.014.2,0Zm.42,0c.511,0,1.023-.008,1.534-.008C200.636,10.725,200.125,10.729,199.613,10.734Zm1.538-.008h0Zm-7.528-.059.258-.383c3.873-.023,7.749-.016,11.625,0l.261,0c-.232-1.729-1.874-2.8-3.429-3.235a10.514,10.514,0,0,0-7.9.721,3.669,3.669,0,0,0-1.932,2.485c.457.022.914.032,1.375.029Zm11.3-.046h0Zm.012,0h0Zm.006,0h0Zm.006,0h0Zm.006,0h0Zm.006,0h0Zm.006,0h0Zm.006,0h0Zm.005,0,0,0Zm0,0,.006,0Zm.006,0,.012,0Zm.012,0a1.453,1.453,0,0,0,.431-.248A1.453,1.453,0,0,1,205,10.594Zm.434-.25,0,0Zm0,0,0,0Zm0,0,.01-.009Zm.011-.01.043-.039ZM148.3,5.415c.8-.016,1.6-.019,2.4,0-.058,4.06-.077,8.126,0,12.185-.782.064-1.568.077-2.35.09C148.285,13.6,148.4,9.507,148.3,5.415ZM44.85,7.253l-.145-.341c-1.082-.1-2.167-.093-3.248-.093-.01-.486-.023-.972-.042-1.455l.126.058c1.1-.071,2.208-.045,3.313-.029.151-1.214-.006-2.447.051-3.667q1.164,0,2.328.023c-.019,1.2-.01,2.4-.042,3.609q1.8,0,3.6-.013.01.971.01,1.944c-1.2-.023-2.4-.032-3.6.006.045,3.454-.026,6.912.035,10.366-.747,0-1.491.01-2.237.026C44.911,14.21,45.037,10.717,44.85,7.253ZM44.718,5.78h0ZM0,17.678S7.84,5.273,11.288.068C11.893.045,12.5.026,13.1,0c3.693,5.756,11.071,17.266,11.071,17.266l.291.409s-1.765-.023-2.769,0c-1.069-1.774-2.221-3.5-3.332-5.244l-.731-.039h0c-3.908,0-7.817-.029-11.722,0-.106.129-.312.383-.415.512C4.5,14.523,3.426,16.09,2.38,17.678Zm5.5-4.791h0Zm0-.007h0Zm0,0c.167-.3-.016-1,.439-1.005C5.493,11.873,5.676,12.581,5.509,12.877Zm12.362-1.471a2.729,2.729,0,0,1-1.391.587A2.728,2.728,0,0,0,17.872,11.406Zm-1.461.584h0Zm-.013,0c-3.461,0-6.928.019-10.386-.113C9.469,12.008,12.936,11.989,16.4,11.989Zm.007,0h0ZM5.949,11.872h0Zm11.907-.4.015-.062ZM7.067,10.492c3.361-.058,6.725-.026,10.086-.023q-2.492-3.825-4.929-7.681C10.525,5.37,8.838,7.962,7.067,10.492ZM77.359.171a.767.767,0,0,0,.307,0,.741.741,0,0,1,.311,0A2.79,2.79,0,0,0,79.49.612C82.926.592,86.357.6,89.792.6a12.756,12.756,0,0,1,1.845.159A8.929,8.929,0,0,0,94.271.85a4.119,4.119,0,0,1,3.3,4.684c-.241,1.42-1.61,2.131-2.646,2.926a4.649,4.649,0,0,1,3.187,2.5A4.133,4.133,0,0,1,97,15.63c-2.025,1.6-4.72,1.916-7.215,2.022-4.137.013-8.274,0-12.411.016ZM80.2,16.1a65.1,65.1,0,0,0,6.854.115c1.565-.029,3.131-.057,4.694-.009.041-.081.1-.2.165-.329-.062.124-.124.247-.165.329-1.563-.048-3.128-.02-4.694.009A65.07,65.07,0,0,1,80.2,16.1l-.245-.354c1.534-.048,3.07-.028,4.607-.008a64.171,64.171,0,0,0,7.517-.2h0A6.507,6.507,0,0,0,95.6,13.972a2.233,2.233,0,0,0,.01-2.81,1.155,1.155,0,0,0-.431-.447,12.119,12.119,0,0,0-5.383-1.2q-2.539,0-5.079,0t-5.065,0c.045,2.077,0,4.156.029,6.236l.267,0Zm3.677-8.524c2.324.013,4.649.026,6.97-.062,1.5-.277,3.271-.48,4.23-1.816a1.805,1.805,0,0,0-.567-2.492,9.691,9.691,0,0,0-5.051-1.239q-2.037-.006-4.075,0c-1.9,0-3.8,0-5.7-.009-.032,1.87.013,3.744-.022,5.618q.861-.009,1.723-.008C82.209,7.567,83.041,7.572,83.872,7.576Zm56.96,10.066c.084-3.49-.074-6.98.039-10.466a17.936,17.936,0,0,1-2.419.087c-.37,0-.74-.007-1.109,0-.01-.634-.016-1.265-.023-1.893.35,0,.7,0,1.052,0,.809,0,1.62-.009,2.428.034a1.784,1.784,0,0,1-.348.242A1.784,1.784,0,0,0,140.8,5.4c.084-1.227-.01-2.456.042-3.683.75.023,1.507.029,2.26.026-.01,1.2,0,2.4-.026,3.6.68,0,1.36,0,2.04,0q.767,0,1.534,0c-.016.647-.029,1.3-.042,1.948-1.172-.035-2.344-.032-3.516-.023.013,3.464,0,6.925.01,10.389l-.552,0Q141.688,17.667,140.832,17.642Zm0-10.486a6.669,6.669,0,0,0-3.02-.427A6.67,6.67,0,0,1,140.832,7.156Zm-3.023-1.193c0,.193,0,.576,0,.766,0-.19,0-.573,0-.766Zm-96.4,1.3.052-.441c1.082,0,2.167,0,3.248.093l.145.341c-.688.006-1.375.007-2.062.007ZM203.494,5.824a15.214,15.214,0,0,0-4.233-.647,7.076,7.076,0,0,0-1.493.176,3.954,3.954,0,0,1-2.586-.083c3.664-1,8.013-.876,11.149,1.478A15.7,15.7,0,0,1,203.494,5.824Zm-55.129-2.3c.029-.6.055-1.191.081-1.784.737.019,1.478.026,2.218.013.013.58.019,1.159.042,1.742-.446.031-.893.042-1.34.042C149.032,3.538,148.7,3.532,148.366,3.525ZM91.638.755A12.756,12.756,0,0,0,89.792.6c-3.435,0-6.867,0-10.3.016A2.79,2.79,0,0,1,77.977.171C79.722.1,81.468.108,83.215.119c1.116.007,2.232.015,3.348,0,.538.009,1.08,0,1.624,0A15.581,15.581,0,0,1,94.271.85a5.41,5.41,0,0,1-.86.065A13.246,13.246,0,0,1,91.638.755Z" transform="translate(0 22.956)" fill="url(#linear-gradient-2)"/>
</svg>
