<svg id="user_icon" xmlns="http://www.w3.org/2000/svg" width="16.262" height="18.107" viewBox="0 0 16.262 18.107">
  <path id="Path_95" data-name="Path 95" d="M20.762,28.786a.75.75,0,0,1-.75-.75V26.191a2.944,2.944,0,0,0-2.941-2.941H9.691A2.944,2.944,0,0,0,6.75,26.191v1.845a.75.75,0,0,1-1.5,0V26.191A4.446,4.446,0,0,1,9.691,21.75h7.381a4.446,4.446,0,0,1,4.441,4.441v1.845A.75.75,0,0,1,20.762,28.786Z" transform="translate(-5.25 -10.679)" fill="#fff"/>
  <path id="Path_96" data-name="Path 96" d="M15.691,3.75A4.441,4.441,0,1,1,11.25,8.191,4.446,4.446,0,0,1,15.691,3.75Zm0,7.381A2.941,2.941,0,1,0,12.75,8.191,2.944,2.944,0,0,0,15.691,11.131Z" transform="translate(-7.56 -3.75)" fill="#fff"/>
</svg>
