<svg xmlns="http://www.w3.org/2000/svg" xmlns:xlink="http://www.w3.org/1999/xlink" width="63.971" height="63.971" viewBox="0 0 63.971 63.971">
  <defs>
    <linearGradient id="linear-gradient" x1="-0.331" y1="-0.324" x2="3.353" y2="3.616" gradientUnits="objectBoundingBox">
      <stop offset="0" stop-color="#f0c49f"/>
      <stop offset="0.205" stop-color="#866e59"/>
      <stop offset="0.448" stop-color="#d8b18f"/>
      <stop offset="0.619" stop-color="#8a715c"/>
      <stop offset="0.812" stop-color="#c5a183"/>
      <stop offset="1" stop-color="#e0b794"/>
    </linearGradient>
    <filter id="Union_13" x="0" y="0" width="63.971" height="63.971" filterUnits="userSpaceOnUse">
      <feOffset dy="3" input="SourceAlpha"/>
      <feGaussianBlur stdDeviation="3" result="blur"/>
      <feFlood flood-opacity="0.502"/>
      <feComposite operator="in" in2="blur"/>
      <feComposite in="SourceGraphic"/>
    </filter>
  </defs>
  <g id="golden_youtube" transform="translate(9.616 6.499)">
    <g transform="matrix(1, 0, 0, 1, -9.62, -6.5)" filter="url(#Union_13)">
      <path id="Union_13-2" data-name="Union 13" d="M-14898.527-6565.615a22.328,22.328,0,0,1-6.587-15.9,22.336,22.336,0,0,1,6.587-15.9,22.335,22.335,0,0,1,15.9-6.584,22.331,22.331,0,0,1,15.9,6.584,22.333,22.333,0,0,1,6.588,15.9,22.325,22.325,0,0,1-6.588,15.9,22.334,22.334,0,0,1-15.9,6.587A22.338,22.338,0,0,1-14898.527-6565.615Zm6.528-23.63a3.048,3.048,0,0,0-2.121,2.177,33.236,33.236,0,0,0-.5,5.929,33.178,33.178,0,0,0,.5,5.925,3.047,3.047,0,0,0,2.121,2.181c1.848.5,9.295.512,9.37.512s7.522-.007,9.37-.512a3.049,3.049,0,0,0,2.121-2.181,32.768,32.768,0,0,0,.5-5.925,32.825,32.825,0,0,0-.5-5.929,3.05,3.05,0,0,0-2.121-2.177c-1.848-.509-9.295-.512-9.37-.512S-14890.151-6589.754-14892-6589.245Zm6.886,4.668,6.124,3.827-6.124,3.831Z" transform="translate(14914.61 6610.5)" stroke="rgba(0,0,0,0)" stroke-miterlimit="10" stroke-width="1" fill="url(#linear-gradient)"/>
    </g>
  </g>
</svg>
