<svg xmlns="http://www.w3.org/2000/svg" xmlns:xlink="http://www.w3.org/1999/xlink" width="63.972" height="63.971" viewBox="0 0 63.972 63.971">
  <defs>
    <linearGradient id="linear-gradient" x1="-0.331" y1="-0.324" x2="3.353" y2="3.616" gradientUnits="objectBoundingBox">
      <stop offset="0" stop-color="#f0c49f"/>
      <stop offset="0.205" stop-color="#866e59"/>
      <stop offset="0.448" stop-color="#d8b18f"/>
      <stop offset="0.619" stop-color="#8a715c"/>
      <stop offset="0.812" stop-color="#c5a183"/>
      <stop offset="1" stop-color="#e0b794"/>
    </linearGradient>
    <filter id="Union_12" x="0" y="0" width="63.972" height="63.971" filterUnits="userSpaceOnUse">
      <feOffset dy="3" input="SourceAlpha"/>
      <feGaussianBlur stdDeviation="3" result="blur"/>
      <feFlood flood-opacity="0.502"/>
      <feComposite operator="in" in2="blur"/>
      <feComposite in="SourceGraphic"/>
    </filter>
  </defs>
  <g id="golden_insta" transform="translate(9.501 6.501)">
    <g transform="matrix(1, 0, 0, 1, -9.5, -6.5)" filter="url(#Union_12)">
      <path id="Union_12-2" data-name="Union 12" d="M-14761.158-6565.616a22.335,22.335,0,0,1-6.586-15.9,22.343,22.343,0,0,1,6.586-15.9,22.345,22.345,0,0,1,15.9-6.586,22.335,22.335,0,0,1,15.9,6.586,22.343,22.343,0,0,1,6.586,15.9,22.335,22.335,0,0,1-6.586,15.9,22.333,22.333,0,0,1-15.9,6.586A22.343,22.343,0,0,1-14761.158-6565.616Zm15.381-27.889c-2.753,0-3.19.015-4.425.07a8.871,8.871,0,0,0-2.909.556,5.886,5.886,0,0,0-2.124,1.382,5.861,5.861,0,0,0-1.386,2.127,8.785,8.785,0,0,0-.557,2.909c-.059,1.309-.073,1.738-.073,4.944s.015,3.636.073,4.944a8.944,8.944,0,0,0,.557,2.913,5.918,5.918,0,0,0,1.382,2.124,5.9,5.9,0,0,0,2.128,1.382,8.806,8.806,0,0,0,2.909.556c1.29.06,1.716.074,4.944.074s3.654-.015,4.943-.074a8.826,8.826,0,0,0,2.913-.556,5.9,5.9,0,0,0,2.12-1.382,5.85,5.85,0,0,0,1.387-2.124,8.965,8.965,0,0,0,.556-2.913c.06-1.308.074-1.738.074-4.944s-.015-3.636-.074-4.944a8.923,8.923,0,0,0-.556-2.909,5.863,5.863,0,0,0-1.387-2.127,5.891,5.891,0,0,0-2.123-1.382,8.9,8.9,0,0,0-2.913-.556c-1.286-.059-1.717-.074-4.94-.074Zm-4.433,21.956a6.8,6.8,0,0,1-2.271-.422,3.779,3.779,0,0,1-1.408-.916,3.8,3.8,0,0,1-.919-1.408,6.773,6.773,0,0,1-.419-2.276c-.06-1.286-.07-1.671-.07-4.948s.011-3.666.07-4.948a6.77,6.77,0,0,1,.419-2.275,3.772,3.772,0,0,1,.919-1.409,3.793,3.793,0,0,1,1.408-.919,6.73,6.73,0,0,1,2.271-.419c1.146-.052,1.575-.066,3.854-.07.1,0,.219,0,.319,0h.778c3.295,0,3.68.011,4.947.07a6.713,6.713,0,0,1,2.275.422,3.8,3.8,0,0,1,1.409.916,3.793,3.793,0,0,1,.915,1.408,6.74,6.74,0,0,1,.423,2.272c.059,1.286.07,1.671.07,4.948s-.012,3.666-.07,4.952a6.74,6.74,0,0,1-.423,2.272,3.752,3.752,0,0,1-.915,1.408,3.8,3.8,0,0,1-1.409.916,6.778,6.778,0,0,1-2.275.422c-1.3.06-1.687.07-4.947.07S-14748.905-6571.49-14750.21-6571.549Zm-1.338-9.966a6.3,6.3,0,0,0,6.29,6.29,6.3,6.3,0,0,0,6.289-6.29,6.3,6.3,0,0,0-6.289-6.29A6.3,6.3,0,0,0-14751.548-6581.515Zm12.824-8.005a1.468,1.468,0,0,0-1.468,1.468,1.472,1.472,0,0,0,1.471,1.471,1.472,1.472,0,0,0,1.472-1.471,1.472,1.472,0,0,0-1.472-1.472Zm-10.526,8.005a4.084,4.084,0,0,1,4.081-4.084,4.085,4.085,0,0,1,4.084,4.084,4.082,4.082,0,0,1-4.084,4.084A4.082,4.082,0,0,1-14749.25-6581.515Z" transform="translate(14777.24 6610.5)" stroke="rgba(0,0,0,0)" stroke-miterlimit="10" stroke-width="1" fill="url(#linear-gradient)"/>
    </g>
  </g>
</svg>
