<svg xmlns="http://www.w3.org/2000/svg" width="181.443" height="181.183" viewBox="0 0 181.443 181.183">
  <g id="PATTERN" transform="translate(0 0)" opacity="0.2">
    <g id="Group_2" data-name="Group 2" transform="translate(0 27.349)">
      <ellipse id="Oval" cx="1.712" cy="1.709" rx="1.712" ry="1.709" transform="translate(0 0)" fill="#fff"/>
      <ellipse id="Oval-2" data-name="Oval" cx="1.712" cy="1.709" rx="1.712" ry="1.709" transform="translate(13.694 0)" fill="#fff"/>
      <ellipse id="Oval-3" data-name="Oval" cx="1.712" cy="1.709" rx="1.712" ry="1.709" transform="translate(27.388 0)" fill="#fff"/>
      <ellipse id="Oval-4" data-name="Oval" cx="1.712" cy="1.709" rx="1.712" ry="1.709" transform="translate(41.081 0)" fill="#fff"/>
      <ellipse id="Oval-5" data-name="Oval" cx="1.712" cy="1.709" rx="1.712" ry="1.709" transform="translate(54.775 0)" fill="#fff"/>
      <ellipse id="Oval-6" data-name="Oval" cx="1.712" cy="1.709" rx="1.712" ry="1.709" transform="translate(68.469 0)" fill="#fff"/>
      <ellipse id="Oval-7" data-name="Oval" cx="1.712" cy="1.709" rx="1.712" ry="1.709" transform="translate(82.163 0)" fill="#fff"/>
    </g>
    <g id="Group_2-2" data-name="Group 2" transform="translate(0 13.674)">
      <ellipse id="Oval-8" data-name="Oval" cx="1.712" cy="1.709" rx="1.712" ry="1.709" transform="translate(0 0)" fill="#fff"/>
      <ellipse id="Oval-9" data-name="Oval" cx="1.712" cy="1.709" rx="1.712" ry="1.709" transform="translate(13.694 0)" fill="#fff"/>
      <ellipse id="Oval-10" data-name="Oval" cx="1.712" cy="1.709" rx="1.712" ry="1.709" transform="translate(27.388 0)" fill="#fff"/>
      <ellipse id="Oval-11" data-name="Oval" cx="1.712" cy="1.709" rx="1.712" ry="1.709" transform="translate(41.081 0)" fill="#fff"/>
      <ellipse id="Oval-12" data-name="Oval" cx="1.712" cy="1.709" rx="1.712" ry="1.709" transform="translate(54.775 0)" fill="#fff"/>
      <ellipse id="Oval-13" data-name="Oval" cx="1.712" cy="1.709" rx="1.712" ry="1.709" transform="translate(68.469 0)" fill="#fff"/>
      <ellipse id="Oval-14" data-name="Oval" cx="1.712" cy="1.709" rx="1.712" ry="1.709" transform="translate(82.163 0)" fill="#fff"/>
    </g>
    <g id="Group_2-3" data-name="Group 2" transform="translate(0 0)">
      <ellipse id="Oval-15" data-name="Oval" cx="1.712" cy="1.709" rx="1.712" ry="1.709" transform="translate(0 0)" fill="#fff"/>
      <ellipse id="Oval-16" data-name="Oval" cx="1.712" cy="1.709" rx="1.712" ry="1.709" transform="translate(13.694 0)" fill="#fff"/>
      <ellipse id="Oval-17" data-name="Oval" cx="1.712" cy="1.709" rx="1.712" ry="1.709" transform="translate(27.388 0)" fill="#fff"/>
      <ellipse id="Oval-18" data-name="Oval" cx="1.712" cy="1.709" rx="1.712" ry="1.709" transform="translate(41.081 0)" fill="#fff"/>
      <ellipse id="Oval-19" data-name="Oval" cx="1.712" cy="1.709" rx="1.712" ry="1.709" transform="translate(54.775 0)" fill="#fff"/>
      <ellipse id="Oval-20" data-name="Oval" cx="1.712" cy="1.709" rx="1.712" ry="1.709" transform="translate(68.469 0)" fill="#fff"/>
      <ellipse id="Oval-21" data-name="Oval" cx="1.712" cy="1.709" rx="1.712" ry="1.709" transform="translate(82.163 0)" fill="#fff"/>
    </g>
    <g id="Group_2-4" data-name="Group 2" transform="translate(95.857 0)">
      <ellipse id="Oval-22" data-name="Oval" cx="1.712" cy="1.709" rx="1.712" ry="1.709" transform="translate(0 0)" fill="#fff"/>
      <ellipse id="Oval-23" data-name="Oval" cx="1.712" cy="1.709" rx="1.712" ry="1.709" transform="translate(13.694 0)" fill="#fff"/>
      <ellipse id="Oval-24" data-name="Oval" cx="1.712" cy="1.709" rx="1.712" ry="1.709" transform="translate(27.388 0)" fill="#fff"/>
      <ellipse id="Oval-25" data-name="Oval" cx="1.712" cy="1.709" rx="1.712" ry="1.709" transform="translate(41.081 0)" fill="#fff"/>
      <ellipse id="Oval-26" data-name="Oval" cx="1.712" cy="1.709" rx="1.712" ry="1.709" transform="translate(54.775 0)" fill="#fff"/>
      <ellipse id="Oval-27" data-name="Oval" cx="1.712" cy="1.709" rx="1.712" ry="1.709" transform="translate(68.469 0)" fill="#fff"/>
      <ellipse id="Oval-28" data-name="Oval" cx="1.712" cy="1.709" rx="1.712" ry="1.709" transform="translate(82.163 0)" fill="#fff"/>
    </g>
    <g id="Group_2-5" data-name="Group 2" transform="translate(95.857 13.674)">
      <ellipse id="Oval-29" data-name="Oval" cx="1.712" cy="1.709" rx="1.712" ry="1.709" transform="translate(0 0)" fill="#fff"/>
      <ellipse id="Oval-30" data-name="Oval" cx="1.712" cy="1.709" rx="1.712" ry="1.709" transform="translate(13.694 0)" fill="#fff"/>
      <ellipse id="Oval-31" data-name="Oval" cx="1.712" cy="1.709" rx="1.712" ry="1.709" transform="translate(27.388 0)" fill="#fff"/>
      <ellipse id="Oval-32" data-name="Oval" cx="1.712" cy="1.709" rx="1.712" ry="1.709" transform="translate(41.081 0)" fill="#fff"/>
      <ellipse id="Oval-33" data-name="Oval" cx="1.712" cy="1.709" rx="1.712" ry="1.709" transform="translate(54.775 0)" fill="#fff"/>
      <ellipse id="Oval-34" data-name="Oval" cx="1.712" cy="1.709" rx="1.712" ry="1.709" transform="translate(68.469 0)" fill="#fff"/>
      <ellipse id="Oval-35" data-name="Oval" cx="1.712" cy="1.709" rx="1.712" ry="1.709" transform="translate(82.163 0)" fill="#fff"/>
    </g>
    <g id="Group_2-6" data-name="Group 2" transform="translate(0 41.023)">
      <ellipse id="Oval-36" data-name="Oval" cx="1.712" cy="1.709" rx="1.712" ry="1.709" transform="translate(0 0)" fill="#fff"/>
      <ellipse id="Oval-37" data-name="Oval" cx="1.712" cy="1.709" rx="1.712" ry="1.709" transform="translate(13.694 0)" fill="#fff"/>
      <ellipse id="Oval-38" data-name="Oval" cx="1.712" cy="1.709" rx="1.712" ry="1.709" transform="translate(27.388 0)" fill="#fff"/>
      <ellipse id="Oval-39" data-name="Oval" cx="1.712" cy="1.709" rx="1.712" ry="1.709" transform="translate(41.081 0)" fill="#fff"/>
      <ellipse id="Oval-40" data-name="Oval" cx="1.712" cy="1.709" rx="1.712" ry="1.709" transform="translate(54.775 0)" fill="#fff"/>
      <ellipse id="Oval-41" data-name="Oval" cx="1.712" cy="1.709" rx="1.712" ry="1.709" transform="translate(68.469 0)" fill="#fff"/>
      <ellipse id="Oval-42" data-name="Oval" cx="1.712" cy="1.709" rx="1.712" ry="1.709" transform="translate(82.163 0)" fill="#fff"/>
    </g>
    <g id="Group_2-7" data-name="Group 2" transform="translate(0 54.697)">
      <ellipse id="Oval-43" data-name="Oval" cx="1.712" cy="1.709" rx="1.712" ry="1.709" transform="translate(0 0)" fill="#fff"/>
      <ellipse id="Oval-44" data-name="Oval" cx="1.712" cy="1.709" rx="1.712" ry="1.709" transform="translate(13.694 0)" fill="#fff"/>
      <ellipse id="Oval-45" data-name="Oval" cx="1.712" cy="1.709" rx="1.712" ry="1.709" transform="translate(27.388 0)" fill="#fff"/>
      <ellipse id="Oval-46" data-name="Oval" cx="1.712" cy="1.709" rx="1.712" ry="1.709" transform="translate(41.081 0)" fill="#fff"/>
      <ellipse id="Oval-47" data-name="Oval" cx="1.712" cy="1.709" rx="1.712" ry="1.709" transform="translate(54.775 0)" fill="#fff"/>
      <ellipse id="Oval-48" data-name="Oval" cx="1.712" cy="1.709" rx="1.712" ry="1.709" transform="translate(68.469 0)" fill="#fff"/>
      <ellipse id="Oval-49" data-name="Oval" cx="1.712" cy="1.709" rx="1.712" ry="1.709" transform="translate(82.163 0)" fill="#fff"/>
    </g>
    <g id="Group_2-8" data-name="Group 2" transform="translate(0 68.371)">
      <ellipse id="Oval-50" data-name="Oval" cx="1.712" cy="1.709" rx="1.712" ry="1.709" transform="translate(0 0)" fill="#fff"/>
      <ellipse id="Oval-51" data-name="Oval" cx="1.712" cy="1.709" rx="1.712" ry="1.709" transform="translate(13.694 0)" fill="#fff"/>
      <ellipse id="Oval-52" data-name="Oval" cx="1.712" cy="1.709" rx="1.712" ry="1.709" transform="translate(27.388 0)" fill="#fff"/>
      <ellipse id="Oval-53" data-name="Oval" cx="1.712" cy="1.709" rx="1.712" ry="1.709" transform="translate(41.081 0)" fill="#fff"/>
      <ellipse id="Oval-54" data-name="Oval" cx="1.712" cy="1.709" rx="1.712" ry="1.709" transform="translate(54.775 0)" fill="#fff"/>
      <ellipse id="Oval-55" data-name="Oval" cx="1.712" cy="1.709" rx="1.712" ry="1.709" transform="translate(68.469 0)" fill="#fff"/>
      <ellipse id="Oval-56" data-name="Oval" cx="1.712" cy="1.709" rx="1.712" ry="1.709" transform="translate(82.163 0)" fill="#fff"/>
    </g>
    <g id="Group_2-9" data-name="Group 2" transform="translate(0 82.045)">
      <ellipse id="Oval-57" data-name="Oval" cx="1.712" cy="1.709" rx="1.712" ry="1.709" transform="translate(0 0)" fill="#fff"/>
      <ellipse id="Oval-58" data-name="Oval" cx="1.712" cy="1.709" rx="1.712" ry="1.709" transform="translate(13.694 0)" fill="#fff"/>
      <ellipse id="Oval-59" data-name="Oval" cx="1.712" cy="1.709" rx="1.712" ry="1.709" transform="translate(27.388 0)" fill="#fff"/>
      <ellipse id="Oval-60" data-name="Oval" cx="1.712" cy="1.709" rx="1.712" ry="1.709" transform="translate(41.081 0)" fill="#fff"/>
      <ellipse id="Oval-61" data-name="Oval" cx="1.712" cy="1.709" rx="1.712" ry="1.709" transform="translate(54.775 0)" fill="#fff"/>
      <ellipse id="Oval-62" data-name="Oval" cx="1.712" cy="1.709" rx="1.712" ry="1.709" transform="translate(68.469 0)" fill="#fff"/>
      <ellipse id="Oval-63" data-name="Oval" cx="1.712" cy="1.709" rx="1.712" ry="1.709" transform="translate(82.163 0)" fill="#fff"/>
    </g>
    <g id="Group_2-10" data-name="Group 2" transform="translate(0 95.72)">
      <ellipse id="Oval-64" data-name="Oval" cx="1.712" cy="1.709" rx="1.712" ry="1.709" transform="translate(0 0)" fill="#fff"/>
      <ellipse id="Oval-65" data-name="Oval" cx="1.712" cy="1.709" rx="1.712" ry="1.709" transform="translate(13.694 0)" fill="#fff"/>
      <ellipse id="Oval-66" data-name="Oval" cx="1.712" cy="1.709" rx="1.712" ry="1.709" transform="translate(27.388 0)" fill="#fff"/>
      <ellipse id="Oval-67" data-name="Oval" cx="1.712" cy="1.709" rx="1.712" ry="1.709" transform="translate(41.081 0)" fill="#fff"/>
      <ellipse id="Oval-68" data-name="Oval" cx="1.712" cy="1.709" rx="1.712" ry="1.709" transform="translate(54.775 0)" fill="#fff"/>
      <ellipse id="Oval-69" data-name="Oval" cx="1.712" cy="1.709" rx="1.712" ry="1.709" transform="translate(68.469 0)" fill="#fff"/>
      <ellipse id="Oval-70" data-name="Oval" cx="1.712" cy="1.709" rx="1.712" ry="1.709" transform="translate(82.163 0)" fill="#fff"/>
    </g>
    <g id="Group_2-11" data-name="Group 2" transform="translate(0 109.394)">
      <ellipse id="Oval-71" data-name="Oval" cx="1.712" cy="1.709" rx="1.712" ry="1.709" transform="translate(0 0)" fill="#fff"/>
      <ellipse id="Oval-72" data-name="Oval" cx="1.712" cy="1.709" rx="1.712" ry="1.709" transform="translate(13.694 0)" fill="#fff"/>
      <ellipse id="Oval-73" data-name="Oval" cx="1.712" cy="1.709" rx="1.712" ry="1.709" transform="translate(27.388 0)" fill="#fff"/>
      <ellipse id="Oval-74" data-name="Oval" cx="1.712" cy="1.709" rx="1.712" ry="1.709" transform="translate(41.081 0)" fill="#fff"/>
      <ellipse id="Oval-75" data-name="Oval" cx="1.712" cy="1.709" rx="1.712" ry="1.709" transform="translate(54.775 0)" fill="#fff"/>
      <ellipse id="Oval-76" data-name="Oval" cx="1.712" cy="1.709" rx="1.712" ry="1.709" transform="translate(68.469 0)" fill="#fff"/>
      <ellipse id="Oval-77" data-name="Oval" cx="1.712" cy="1.709" rx="1.712" ry="1.709" transform="translate(82.163 0)" fill="#fff"/>
    </g>
    <g id="Group_2-12" data-name="Group 2" transform="translate(0 164.09)">
      <ellipse id="Oval-78" data-name="Oval" cx="1.712" cy="1.709" rx="1.712" ry="1.709" transform="translate(0 0)" fill="#fff"/>
      <ellipse id="Oval-79" data-name="Oval" cx="1.712" cy="1.709" rx="1.712" ry="1.709" transform="translate(13.694 0)" fill="#fff"/>
      <ellipse id="Oval-80" data-name="Oval" cx="1.712" cy="1.709" rx="1.712" ry="1.709" transform="translate(27.388 0)" fill="#fff"/>
      <ellipse id="Oval-81" data-name="Oval" cx="1.712" cy="1.709" rx="1.712" ry="1.709" transform="translate(41.081 0)" fill="#fff"/>
      <ellipse id="Oval-82" data-name="Oval" cx="1.712" cy="1.709" rx="1.712" ry="1.709" transform="translate(54.775 0)" fill="#fff"/>
      <ellipse id="Oval-83" data-name="Oval" cx="1.712" cy="1.709" rx="1.712" ry="1.709" transform="translate(68.469 0)" fill="#fff"/>
      <ellipse id="Oval-84" data-name="Oval" cx="1.712" cy="1.709" rx="1.712" ry="1.709" transform="translate(82.163 0)" fill="#fff"/>
    </g>
    <g id="Group_2-13" data-name="Group 2" transform="translate(0 177.765)">
      <ellipse id="Oval-85" data-name="Oval" cx="1.712" cy="1.709" rx="1.712" ry="1.709" transform="translate(0 0)" fill="#fff"/>
      <ellipse id="Oval-86" data-name="Oval" cx="1.712" cy="1.709" rx="1.712" ry="1.709" transform="translate(13.694 0)" fill="#fff"/>
      <ellipse id="Oval-87" data-name="Oval" cx="1.712" cy="1.709" rx="1.712" ry="1.709" transform="translate(27.388 0)" fill="#fff"/>
      <ellipse id="Oval-88" data-name="Oval" cx="1.712" cy="1.709" rx="1.712" ry="1.709" transform="translate(41.081 0)" fill="#fff"/>
      <ellipse id="Oval-89" data-name="Oval" cx="1.712" cy="1.709" rx="1.712" ry="1.709" transform="translate(54.775 0)" fill="#fff"/>
      <ellipse id="Oval-90" data-name="Oval" cx="1.712" cy="1.709" rx="1.712" ry="1.709" transform="translate(68.469 0)" fill="#fff"/>
      <ellipse id="Oval-91" data-name="Oval" cx="1.712" cy="1.709" rx="1.712" ry="1.709" transform="translate(82.163 0)" fill="#fff"/>
    </g>
    <g id="Group_2-14" data-name="Group 2" transform="translate(95.857 177.765)">
      <ellipse id="Oval-92" data-name="Oval" cx="1.712" cy="1.709" rx="1.712" ry="1.709" transform="translate(0 0)" fill="#fff"/>
      <ellipse id="Oval-93" data-name="Oval" cx="1.712" cy="1.709" rx="1.712" ry="1.709" transform="translate(13.694 0)" fill="#fff"/>
      <ellipse id="Oval-94" data-name="Oval" cx="1.712" cy="1.709" rx="1.712" ry="1.709" transform="translate(27.388 0)" fill="#fff"/>
      <ellipse id="Oval-95" data-name="Oval" cx="1.712" cy="1.709" rx="1.712" ry="1.709" transform="translate(41.081 0)" fill="#fff"/>
      <ellipse id="Oval-96" data-name="Oval" cx="1.712" cy="1.709" rx="1.712" ry="1.709" transform="translate(54.775 0)" fill="#fff"/>
      <ellipse id="Oval-97" data-name="Oval" cx="1.712" cy="1.709" rx="1.712" ry="1.709" transform="translate(68.469 0)" fill="#fff"/>
      <ellipse id="Oval-98" data-name="Oval" cx="1.712" cy="1.709" rx="1.712" ry="1.709" transform="translate(82.163 0)" fill="#fff"/>
    </g>
    <g id="Group_2-15" data-name="Group 2" transform="translate(95.857 164.09)">
      <ellipse id="Oval-99" data-name="Oval" cx="1.712" cy="1.709" rx="1.712" ry="1.709" transform="translate(0 0)" fill="#fff"/>
      <ellipse id="Oval-100" data-name="Oval" cx="1.712" cy="1.709" rx="1.712" ry="1.709" transform="translate(13.694 0)" fill="#fff"/>
      <ellipse id="Oval-101" data-name="Oval" cx="1.712" cy="1.709" rx="1.712" ry="1.709" transform="translate(27.388 0)" fill="#fff"/>
      <ellipse id="Oval-102" data-name="Oval" cx="1.712" cy="1.709" rx="1.712" ry="1.709" transform="translate(41.081 0)" fill="#fff"/>
      <ellipse id="Oval-103" data-name="Oval" cx="1.712" cy="1.709" rx="1.712" ry="1.709" transform="translate(54.775 0)" fill="#fff"/>
      <ellipse id="Oval-104" data-name="Oval" cx="1.712" cy="1.709" rx="1.712" ry="1.709" transform="translate(68.469 0)" fill="#fff"/>
      <ellipse id="Oval-105" data-name="Oval" cx="1.712" cy="1.709" rx="1.712" ry="1.709" transform="translate(82.163 0)" fill="#fff"/>
    </g>
    <g id="Group_2-16" data-name="Group 2" transform="translate(0 123.068)">
      <ellipse id="Oval-106" data-name="Oval" cx="1.712" cy="1.709" rx="1.712" ry="1.709" transform="translate(0 0)" fill="#fff"/>
      <ellipse id="Oval-107" data-name="Oval" cx="1.712" cy="1.709" rx="1.712" ry="1.709" transform="translate(13.694 0)" fill="#fff"/>
      <ellipse id="Oval-108" data-name="Oval" cx="1.712" cy="1.709" rx="1.712" ry="1.709" transform="translate(27.388 0)" fill="#fff"/>
      <ellipse id="Oval-109" data-name="Oval" cx="1.712" cy="1.709" rx="1.712" ry="1.709" transform="translate(41.081 0)" fill="#fff"/>
      <ellipse id="Oval-110" data-name="Oval" cx="1.712" cy="1.709" rx="1.712" ry="1.709" transform="translate(54.775 0)" fill="#fff"/>
      <ellipse id="Oval-111" data-name="Oval" cx="1.712" cy="1.709" rx="1.712" ry="1.709" transform="translate(68.469 0)" fill="#fff"/>
      <ellipse id="Oval-112" data-name="Oval" cx="1.712" cy="1.709" rx="1.712" ry="1.709" transform="translate(82.163 0)" fill="#fff"/>
    </g>
    <g id="Group_2-17" data-name="Group 2" transform="translate(0 136.742)">
      <ellipse id="Oval-113" data-name="Oval" cx="1.712" cy="1.709" rx="1.712" ry="1.709" transform="translate(0 0)" fill="#fff"/>
      <ellipse id="Oval-114" data-name="Oval" cx="1.712" cy="1.709" rx="1.712" ry="1.709" transform="translate(13.694 0)" fill="#fff"/>
      <ellipse id="Oval-115" data-name="Oval" cx="1.712" cy="1.709" rx="1.712" ry="1.709" transform="translate(27.388 0)" fill="#fff"/>
      <ellipse id="Oval-116" data-name="Oval" cx="1.712" cy="1.709" rx="1.712" ry="1.709" transform="translate(41.081 0)" fill="#fff"/>
      <ellipse id="Oval-117" data-name="Oval" cx="1.712" cy="1.709" rx="1.712" ry="1.709" transform="translate(54.775 0)" fill="#fff"/>
      <ellipse id="Oval-118" data-name="Oval" cx="1.712" cy="1.709" rx="1.712" ry="1.709" transform="translate(68.469 0)" fill="#fff"/>
      <ellipse id="Oval-119" data-name="Oval" cx="1.712" cy="1.709" rx="1.712" ry="1.709" transform="translate(82.163 0)" fill="#fff"/>
    </g>
    <g id="Group_2-18" data-name="Group 2" transform="translate(0 150.416)">
      <ellipse id="Oval-120" data-name="Oval" cx="1.712" cy="1.709" rx="1.712" ry="1.709" transform="translate(0 0)" fill="#fff"/>
      <ellipse id="Oval-121" data-name="Oval" cx="1.712" cy="1.709" rx="1.712" ry="1.709" transform="translate(13.694 0)" fill="#fff"/>
      <ellipse id="Oval-122" data-name="Oval" cx="1.712" cy="1.709" rx="1.712" ry="1.709" transform="translate(27.388 0)" fill="#fff"/>
      <ellipse id="Oval-123" data-name="Oval" cx="1.712" cy="1.709" rx="1.712" ry="1.709" transform="translate(41.081 0)" fill="#fff"/>
      <ellipse id="Oval-124" data-name="Oval" cx="1.712" cy="1.709" rx="1.712" ry="1.709" transform="translate(54.775 0)" fill="#fff"/>
      <ellipse id="Oval-125" data-name="Oval" cx="1.712" cy="1.709" rx="1.712" ry="1.709" transform="translate(68.469 0)" fill="#fff"/>
      <ellipse id="Oval-126" data-name="Oval" cx="1.712" cy="1.709" rx="1.712" ry="1.709" transform="translate(82.163 0)" fill="#fff"/>
    </g>
    <g id="Group_2-19" data-name="Group 2" transform="translate(95.857 27.349)">
      <ellipse id="Oval-127" data-name="Oval" cx="1.712" cy="1.709" rx="1.712" ry="1.709" transform="translate(0 0)" fill="#fff"/>
      <ellipse id="Oval-128" data-name="Oval" cx="1.712" cy="1.709" rx="1.712" ry="1.709" transform="translate(13.694 0)" fill="#fff"/>
      <ellipse id="Oval-129" data-name="Oval" cx="1.712" cy="1.709" rx="1.712" ry="1.709" transform="translate(27.388 0)" fill="#fff"/>
      <ellipse id="Oval-130" data-name="Oval" cx="1.712" cy="1.709" rx="1.712" ry="1.709" transform="translate(41.081 0)" fill="#fff"/>
      <ellipse id="Oval-131" data-name="Oval" cx="1.712" cy="1.709" rx="1.712" ry="1.709" transform="translate(54.775 0)" fill="#fff"/>
      <ellipse id="Oval-132" data-name="Oval" cx="1.712" cy="1.709" rx="1.712" ry="1.709" transform="translate(68.469 0)" fill="#fff"/>
      <ellipse id="Oval-133" data-name="Oval" cx="1.712" cy="1.709" rx="1.712" ry="1.709" transform="translate(82.163 0)" fill="#fff"/>
    </g>
    <g id="Group_2-20" data-name="Group 2" transform="translate(95.857 41.023)">
      <ellipse id="Oval-134" data-name="Oval" cx="1.712" cy="1.709" rx="1.712" ry="1.709" transform="translate(0 0)" fill="#fff"/>
      <ellipse id="Oval-135" data-name="Oval" cx="1.712" cy="1.709" rx="1.712" ry="1.709" transform="translate(13.694 0)" fill="#fff"/>
      <ellipse id="Oval-136" data-name="Oval" cx="1.712" cy="1.709" rx="1.712" ry="1.709" transform="translate(27.388 0)" fill="#fff"/>
      <ellipse id="Oval-137" data-name="Oval" cx="1.712" cy="1.709" rx="1.712" ry="1.709" transform="translate(41.081 0)" fill="#fff"/>
      <ellipse id="Oval-138" data-name="Oval" cx="1.712" cy="1.709" rx="1.712" ry="1.709" transform="translate(54.775 0)" fill="#fff"/>
      <ellipse id="Oval-139" data-name="Oval" cx="1.712" cy="1.709" rx="1.712" ry="1.709" transform="translate(68.469 0)" fill="#fff"/>
      <ellipse id="Oval-140" data-name="Oval" cx="1.712" cy="1.709" rx="1.712" ry="1.709" transform="translate(82.163 0)" fill="#fff"/>
    </g>
    <g id="Group_2-21" data-name="Group 2" transform="translate(95.857 54.697)">
      <ellipse id="Oval-141" data-name="Oval" cx="1.712" cy="1.709" rx="1.712" ry="1.709" transform="translate(0 0)" fill="#fff"/>
      <ellipse id="Oval-142" data-name="Oval" cx="1.712" cy="1.709" rx="1.712" ry="1.709" transform="translate(13.694 0)" fill="#fff"/>
      <ellipse id="Oval-143" data-name="Oval" cx="1.712" cy="1.709" rx="1.712" ry="1.709" transform="translate(27.388 0)" fill="#fff"/>
      <ellipse id="Oval-144" data-name="Oval" cx="1.712" cy="1.709" rx="1.712" ry="1.709" transform="translate(41.081 0)" fill="#fff"/>
      <ellipse id="Oval-145" data-name="Oval" cx="1.712" cy="1.709" rx="1.712" ry="1.709" transform="translate(54.775 0)" fill="#fff"/>
      <ellipse id="Oval-146" data-name="Oval" cx="1.712" cy="1.709" rx="1.712" ry="1.709" transform="translate(68.469 0)" fill="#fff"/>
      <ellipse id="Oval-147" data-name="Oval" cx="1.712" cy="1.709" rx="1.712" ry="1.709" transform="translate(82.163 0)" fill="#fff"/>
    </g>
    <g id="Group_2-22" data-name="Group 2" transform="translate(95.857 68.371)">
      <ellipse id="Oval-148" data-name="Oval" cx="1.712" cy="1.709" rx="1.712" ry="1.709" transform="translate(0 0)" fill="#fff"/>
      <ellipse id="Oval-149" data-name="Oval" cx="1.712" cy="1.709" rx="1.712" ry="1.709" transform="translate(13.694 0)" fill="#fff"/>
      <ellipse id="Oval-150" data-name="Oval" cx="1.712" cy="1.709" rx="1.712" ry="1.709" transform="translate(27.388 0)" fill="#fff"/>
      <ellipse id="Oval-151" data-name="Oval" cx="1.712" cy="1.709" rx="1.712" ry="1.709" transform="translate(41.081 0)" fill="#fff"/>
      <ellipse id="Oval-152" data-name="Oval" cx="1.712" cy="1.709" rx="1.712" ry="1.709" transform="translate(54.775 0)" fill="#fff"/>
      <ellipse id="Oval-153" data-name="Oval" cx="1.712" cy="1.709" rx="1.712" ry="1.709" transform="translate(68.469 0)" fill="#fff"/>
      <ellipse id="Oval-154" data-name="Oval" cx="1.712" cy="1.709" rx="1.712" ry="1.709" transform="translate(82.163 0)" fill="#fff"/>
    </g>
    <g id="Group_2-23" data-name="Group 2" transform="translate(95.857 82.045)">
      <ellipse id="Oval-155" data-name="Oval" cx="1.712" cy="1.709" rx="1.712" ry="1.709" transform="translate(0 0)" fill="#fff"/>
      <ellipse id="Oval-156" data-name="Oval" cx="1.712" cy="1.709" rx="1.712" ry="1.709" transform="translate(13.694 0)" fill="#fff"/>
      <ellipse id="Oval-157" data-name="Oval" cx="1.712" cy="1.709" rx="1.712" ry="1.709" transform="translate(27.388 0)" fill="#fff"/>
      <ellipse id="Oval-158" data-name="Oval" cx="1.712" cy="1.709" rx="1.712" ry="1.709" transform="translate(41.081 0)" fill="#fff"/>
      <ellipse id="Oval-159" data-name="Oval" cx="1.712" cy="1.709" rx="1.712" ry="1.709" transform="translate(54.775 0)" fill="#fff"/>
      <ellipse id="Oval-160" data-name="Oval" cx="1.712" cy="1.709" rx="1.712" ry="1.709" transform="translate(68.469 0)" fill="#fff"/>
      <ellipse id="Oval-161" data-name="Oval" cx="1.712" cy="1.709" rx="1.712" ry="1.709" transform="translate(82.163 0)" fill="#fff"/>
    </g>
    <g id="Group_2-24" data-name="Group 2" transform="translate(95.857 95.72)">
      <ellipse id="Oval-162" data-name="Oval" cx="1.712" cy="1.709" rx="1.712" ry="1.709" transform="translate(0 0)" fill="#fff"/>
      <ellipse id="Oval-163" data-name="Oval" cx="1.712" cy="1.709" rx="1.712" ry="1.709" transform="translate(13.694 0)" fill="#fff"/>
      <ellipse id="Oval-164" data-name="Oval" cx="1.712" cy="1.709" rx="1.712" ry="1.709" transform="translate(27.388 0)" fill="#fff"/>
      <ellipse id="Oval-165" data-name="Oval" cx="1.712" cy="1.709" rx="1.712" ry="1.709" transform="translate(41.081 0)" fill="#fff"/>
      <ellipse id="Oval-166" data-name="Oval" cx="1.712" cy="1.709" rx="1.712" ry="1.709" transform="translate(54.775 0)" fill="#fff"/>
      <ellipse id="Oval-167" data-name="Oval" cx="1.712" cy="1.709" rx="1.712" ry="1.709" transform="translate(68.469 0)" fill="#fff"/>
      <ellipse id="Oval-168" data-name="Oval" cx="1.712" cy="1.709" rx="1.712" ry="1.709" transform="translate(82.163 0)" fill="#fff"/>
    </g>
    <g id="Group_2-25" data-name="Group 2" transform="translate(95.857 109.394)">
      <ellipse id="Oval-169" data-name="Oval" cx="1.712" cy="1.709" rx="1.712" ry="1.709" transform="translate(0 0)" fill="#fff"/>
      <ellipse id="Oval-170" data-name="Oval" cx="1.712" cy="1.709" rx="1.712" ry="1.709" transform="translate(13.694 0)" fill="#fff"/>
      <ellipse id="Oval-171" data-name="Oval" cx="1.712" cy="1.709" rx="1.712" ry="1.709" transform="translate(27.388 0)" fill="#fff"/>
      <ellipse id="Oval-172" data-name="Oval" cx="1.712" cy="1.709" rx="1.712" ry="1.709" transform="translate(41.081 0)" fill="#fff"/>
      <ellipse id="Oval-173" data-name="Oval" cx="1.712" cy="1.709" rx="1.712" ry="1.709" transform="translate(54.775 0)" fill="#fff"/>
      <ellipse id="Oval-174" data-name="Oval" cx="1.712" cy="1.709" rx="1.712" ry="1.709" transform="translate(68.469 0)" fill="#fff"/>
      <ellipse id="Oval-175" data-name="Oval" cx="1.712" cy="1.709" rx="1.712" ry="1.709" transform="translate(82.163 0)" fill="#fff"/>
    </g>
    <g id="Group_2-26" data-name="Group 2" transform="translate(95.857 123.068)">
      <ellipse id="Oval-176" data-name="Oval" cx="1.712" cy="1.709" rx="1.712" ry="1.709" transform="translate(0 0)" fill="#fff"/>
      <ellipse id="Oval-177" data-name="Oval" cx="1.712" cy="1.709" rx="1.712" ry="1.709" transform="translate(13.694 0)" fill="#fff"/>
      <ellipse id="Oval-178" data-name="Oval" cx="1.712" cy="1.709" rx="1.712" ry="1.709" transform="translate(27.388 0)" fill="#fff"/>
      <ellipse id="Oval-179" data-name="Oval" cx="1.712" cy="1.709" rx="1.712" ry="1.709" transform="translate(41.081 0)" fill="#fff"/>
      <ellipse id="Oval-180" data-name="Oval" cx="1.712" cy="1.709" rx="1.712" ry="1.709" transform="translate(54.775 0)" fill="#fff"/>
      <ellipse id="Oval-181" data-name="Oval" cx="1.712" cy="1.709" rx="1.712" ry="1.709" transform="translate(68.469 0)" fill="#fff"/>
      <ellipse id="Oval-182" data-name="Oval" cx="1.712" cy="1.709" rx="1.712" ry="1.709" transform="translate(82.163 0)" fill="#fff"/>
    </g>
    <g id="Group_2-27" data-name="Group 2" transform="translate(95.857 136.742)">
      <ellipse id="Oval-183" data-name="Oval" cx="1.712" cy="1.709" rx="1.712" ry="1.709" transform="translate(0 0)" fill="#fff"/>
      <ellipse id="Oval-184" data-name="Oval" cx="1.712" cy="1.709" rx="1.712" ry="1.709" transform="translate(13.694 0)" fill="#fff"/>
      <ellipse id="Oval-185" data-name="Oval" cx="1.712" cy="1.709" rx="1.712" ry="1.709" transform="translate(27.388 0)" fill="#fff"/>
      <ellipse id="Oval-186" data-name="Oval" cx="1.712" cy="1.709" rx="1.712" ry="1.709" transform="translate(41.081 0)" fill="#fff"/>
      <ellipse id="Oval-187" data-name="Oval" cx="1.712" cy="1.709" rx="1.712" ry="1.709" transform="translate(54.775 0)" fill="#fff"/>
      <ellipse id="Oval-188" data-name="Oval" cx="1.712" cy="1.709" rx="1.712" ry="1.709" transform="translate(68.469 0)" fill="#fff"/>
      <ellipse id="Oval-189" data-name="Oval" cx="1.712" cy="1.709" rx="1.712" ry="1.709" transform="translate(82.163 0)" fill="#fff"/>
    </g>
    <g id="Group_2-28" data-name="Group 2" transform="translate(95.857 150.416)">
      <ellipse id="Oval-190" data-name="Oval" cx="1.712" cy="1.709" rx="1.712" ry="1.709" transform="translate(0 0)" fill="#fff"/>
      <ellipse id="Oval-191" data-name="Oval" cx="1.712" cy="1.709" rx="1.712" ry="1.709" transform="translate(13.694 0)" fill="#fff"/>
      <ellipse id="Oval-192" data-name="Oval" cx="1.712" cy="1.709" rx="1.712" ry="1.709" transform="translate(27.388 0)" fill="#fff"/>
      <ellipse id="Oval-193" data-name="Oval" cx="1.712" cy="1.709" rx="1.712" ry="1.709" transform="translate(41.081 0)" fill="#fff"/>
      <ellipse id="Oval-194" data-name="Oval" cx="1.712" cy="1.709" rx="1.712" ry="1.709" transform="translate(54.775 0)" fill="#fff"/>
      <ellipse id="Oval-195" data-name="Oval" cx="1.712" cy="1.709" rx="1.712" ry="1.709" transform="translate(68.469 0)" fill="#fff"/>
      <ellipse id="Oval-196" data-name="Oval" cx="1.712" cy="1.709" rx="1.712" ry="1.709" transform="translate(82.163 0)" fill="#fff"/>
    </g>
  </g>
</svg>
