<svg id="Icon_feather-search" data-name="Icon feather-search" xmlns="http://www.w3.org/2000/svg" width="15.647" height="15.647" viewBox="0 0 15.647 15.647">
  <path id="Path_97" data-name="Path 97" d="M10.788,17.825a7.038,7.038,0,1,1,7.038-7.038A7.046,7.046,0,0,1,10.788,17.825Zm0-12.575a5.538,5.538,0,1,0,5.538,5.538A5.544,5.544,0,0,0,10.788,5.25Z" transform="translate(-3.75 -3.75)" fill="#fff"/>
  <path id="Path_98" data-name="Path 98" d="M28.394,29.144a.748.748,0,0,1-.53-.22l-3.419-3.419a.75.75,0,1,1,1.061-1.061l3.419,3.419a.75.75,0,0,1-.53,1.28Z" transform="translate(-13.497 -13.497)" fill="#fff"/>
</svg>
